<svg xmlns="http://www.w3.org/2000/svg" viewBox="0 0 96 96" role="img" aria-label="Lipyum müşteri temsilcisi">
  <defs>
    <linearGradient id="bg" x1="20" y1="12" x2="82" y2="88" gradientUnits="userSpaceOnUse">
      <stop offset="0" stop-color="#22c55e"/>
      <stop offset="1" stop-color="#0f766e"/>
    </linearGradient>
    <linearGradient id="face" x1="36" y1="22" x2="58" y2="58" gradientUnits="userSpaceOnUse">
      <stop offset="0" stop-color="#ffe7ca"/>
      <stop offset="1" stop-color="#f2b985"/>
    </linearGradient>
  </defs>
  <rect width="96" height="96" rx="28" fill="url(#bg)"/>
  <circle cx="48" cy="44" r="21" fill="#17324d" opacity=".18"/>
  <path d="M24 83c5-15 14-23 24-23s19 8 24 23" fill="#ecfdf5"/>
  <path d="M31 41c0-13 7-22 18-22 10 0 17 8 17 21 0 14-7 25-18 25S31 54 31 41Z" fill="url(#face)"/>
  <path d="M29 41c2-17 11-26 25-25 9 1 15 8 16 18-10-1-20-5-28-12-5 4-9 10-13 19Z" fill="#172033"/>
  <circle cx="41" cy="44" r="2.2" fill="#172033"/>
  <circle cx="55" cy="44" r="2.2" fill="#172033"/>
  <path d="M42 53c4 3 9 3 13 0" fill="none" stroke="#8a4b25" stroke-width="2.4" stroke-linecap="round"/>
  <path d="M70 42c6 3 9 8 9 15s-3 12-9 15" fill="none" stroke="#ecfdf5" stroke-width="5" stroke-linecap="round"/>
  <path d="M66 49v17" fill="none" stroke="#ecfdf5" stroke-width="6" stroke-linecap="round"/>
  <path d="M66 67h8" fill="none" stroke="#ecfdf5" stroke-width="5" stroke-linecap="round"/>
</svg>
