<svg xmlns="http://www.w3.org/2000/svg" viewBox="0 0 96 72" fill="none">
  <defs>
    <linearGradient id="gold" x1="19" y1="13" x2="79" y2="58" gradientUnits="userSpaceOnUse">
      <stop stop-color="#E7C66A"/>
      <stop offset="0.48" stop-color="#C7932B"/>
      <stop offset="1" stop-color="#A87619"/>
    </linearGradient>
    <radialGradient id="glow" cx="0" cy="0" r="1" gradientTransform="translate(48 38) rotate(90) scale(32 43)" gradientUnits="userSpaceOnUse">
      <stop stop-color="#F6D981" stop-opacity=".30"/>
      <stop offset="1" stop-color="#F6D981" stop-opacity="0"/>
    </radialGradient>
    <filter id="blur" x="6" y="35" width="84" height="34" filterUnits="userSpaceOnUse">
      <feGaussianBlur stdDeviation="5"/>
    </filter>
  </defs>
  <ellipse cx="48" cy="42" rx="41" ry="28" fill="url(#glow)"/>
  <g opacity=".30" filter="url(#blur)"><ellipse cx="48" cy="52" rx="28" ry="5" fill="#D7A63B"/></g>
  <path d="M24 48h48l4-28-15 12-13-20-13 20-15-12 4 28Z" fill="url(#gold)"/>
  <path d="M26 54h44" stroke="#A87619" stroke-width="4" stroke-linecap="round"/>
  <circle cx="20" cy="19" r="4" fill="#E7C66A"/>
  <circle cx="48" cy="11" r="4" fill="#E7C66A"/>
  <circle cx="76" cy="19" r="4" fill="#E7C66A"/>
  <path d="M13 8v8M9 12h8M84 9v7M80.5 12.5h7" stroke="#F1D88D" stroke-width="1.7" stroke-linecap="round"/>
  <path d="M13 29v5M10.5 31.5h5M85 30v5M82.5 32.5h5" stroke="#F6E8BE" stroke-width="1.4" stroke-linecap="round"/>
</svg>
