<svg xmlns="http://www.w3.org/2000/svg" viewBox="0 0 160 160" fill="none">
  <defs>
    <radialGradient id="aura" cx="0" cy="0" r="1" gradientTransform="translate(80 82) rotate(90) scale(78)" gradientUnits="userSpaceOnUse">
      <stop stop-color="#F9E5AA" stop-opacity=".72"/>
      <stop offset=".55" stop-color="#F8E2A0" stop-opacity=".22"/>
      <stop offset="1" stop-color="#FFF7E2" stop-opacity="0"/>
    </radialGradient>
    <linearGradient id="disc" x1="52" y1="48" x2="113" y2="124" gradientUnits="userSpaceOnUse">
      <stop stop-color="#FFFDF7"/>
      <stop offset="1" stop-color="#F8E8B8"/>
    </linearGradient>
    <filter id="soft" x="13" y="13" width="134" height="134" filterUnits="userSpaceOnUse">
      <feGaussianBlur stdDeviation="7"/>
    </filter>
  </defs>
  <circle cx="80" cy="80" r="70" fill="url(#aura)"/>
  <circle cx="80" cy="82" r="55" fill="#EBCB72" fill-opacity=".14" filter="url(#soft)"/>
  <circle cx="80" cy="80" r="51" fill="url(#disc)" stroke="#E6C568" stroke-width="1.6"/>
  <path d="M51 83v-3c0-17.12 12.98-31 29-31s29 13.88 29 31v3" stroke="#AF7C1E" stroke-width="7" stroke-linecap="round"/>
  <rect x="42" y="76" width="18" height="33" rx="9" fill="#C99A38"/>
  <rect x="100" y="76" width="18" height="33" rx="9" fill="#C99A38"/>
  <path d="M109 105c0 8.5-6.8 14-15.5 14H87" stroke="#AF7C1E" stroke-width="7" stroke-linecap="round"/>
  <rect x="76" y="113" width="20" height="10" rx="5" fill="#AF7C1E"/>
  <path d="M128 55v9M123.5 59.5h9M35 48v7M31.5 51.5h7" stroke="#EBCB72" stroke-width="2" stroke-linecap="round" opacity=".75"/>
</svg>
